<svg width="195" height="110" viewBox="0 0 195 110" fill="none" xmlns="http://www.w3.org/2000/svg">
<path d="M6.05401 100.436L5.28119 105.091H10H58.1146L58.0995 105.182H62.8182H87.5454H90.9302L91.4903 101.844L97.4885 66.0942L105.276 101.318L105.97 104.455H109.182H124.091H126.446L127.589 102.395L146.858 67.6628L141.417 100.529L140.647 105.182H145.364H170.091H173.482L174.037 101.837L189.491 8.74601L190.264 4.09091H185.545H154.091H151.779L150.625 6.09478L124.474 51.5052L113.613 7.1397L112.866 4.09091H109.727H78.2727H74.882L74.3267 7.43582L62.8233 76.7273H43.4414L54.6739 8.65119L55.4414 4H50.7273H25.4545H22.0639L21.5086 7.3449L6.05401 100.436Z" fill="url(#paint0_linear_9_18)" stroke="#100809" stroke-width="8"/>
<defs>
<linearGradient id="paint0_linear_9_18" x1="97.7727" y1="8" x2="97.7727" y2="101.182" gradientUnits="userSpaceOnUse">
<stop stop-color="#FF9879"/>
<stop offset="0.25" stop-color="#FF9879"/>
<stop offset="0.25" stop-color="#FF6B55"/>
<stop offset="0.5" stop-color="#FF6B55"/>
<stop offset="0.5" stop-color="#FF4D4D"/>
<stop offset="0.78" stop-color="#FF4D4D"/>
<stop offset="0.78" stop-color="#9A2E30"/>
<stop offset="1" stop-color="#9A2E30"/>
</linearGradient>
</defs>
</svg>
